<svg width="16" height="16" viewBox="0 0 16 16" fill="none" xmlns="http://www.w3.org/2000/svg">
<path fill-rule="evenodd" clip-rule="evenodd" d="M12 1.25244C11.4481 1.25244 10.9188 1.47168 10.5286 1.86192L2.19526 10.1953C2.10982 10.2807 2.0492 10.3877 2.0199 10.505L1.35323 13.1716C1.29644 13.3988 1.363 13.6391 1.52859 13.8047C1.69418 13.9703 1.9345 14.0369 2.16168 13.9801L4.82835 13.3134C4.94557 13.2841 5.05263 13.2235 5.13806 13.1381L13.4714 4.80473C13.6646 4.6115 13.8179 4.3821 13.9225 4.12964C14.0271 3.87718 14.0809 3.60659 14.0809 3.33332C14.0809 3.06006 14.0271 2.78947 13.9225 2.537C13.8179 2.28454 13.6646 2.05514 13.4714 1.86192C13.2782 1.66869 13.0488 1.51541 12.7963 1.41084C12.5438 1.30626 12.2733 1.25244 12 1.25244ZM11.4714 2.80473C11.6116 2.66453 11.8017 2.58577 12 2.58577C12.0982 2.58577 12.1954 2.60511 12.2861 2.64268C12.3768 2.68025 12.4592 2.73531 12.5286 2.80473C12.598 2.87414 12.6531 2.95655 12.6906 3.04725C12.7282 3.13794 12.7475 3.23515 12.7475 3.33332C12.7475 3.43149 12.7282 3.5287 12.6906 3.6194C12.6531 3.71009 12.598 3.7925 12.5286 3.86192L4.32583 12.0647L2.91624 12.4171L3.26864 11.0075L11.4714 2.80473Z" fill="white"/>
<path d="M7.99999 12.6667C7.6318 12.6667 7.33333 12.9651 7.33333 13.3333C7.33333 13.7015 7.6318 14 7.99999 14H14C14.3682 14 14.6667 13.7015 14.6667 13.3333C14.6667 12.9651 14.3682 12.6667 14 12.6667H7.99999Z" fill="white"/>
</svg>
