<svg width="20" height="21" viewBox="0 0 20 21" fill="none" xmlns="http://www.w3.org/2000/svg">
<g clip-path="url(#clip0_107_230)">
<path d="M0.833252 1.33331H4.16658L6.39992 12.4916C6.47612 12.8753 6.68484 13.2199 6.98954 13.4652C7.29424 13.7105 7.6755 13.8408 8.06658 13.8333H16.1666C16.5577 13.8408 16.9389 13.7105 17.2436 13.4652C17.5483 13.2199 17.757 12.8753 17.8333 12.4916L19.1666 5.49998H4.99992M8.33325 18C8.33325 18.4602 7.96016 18.8333 7.49992 18.8333C7.03968 18.8333 6.66658 18.4602 6.66658 18C6.66658 17.5397 7.03968 17.1666 7.49992 17.1666C7.96016 17.1666 8.33325 17.5397 8.33325 18ZM17.4999 18C17.4999 18.4602 17.1268 18.8333 16.6666 18.8333C16.2063 18.8333 15.8333 18.4602 15.8333 18C15.8333 17.5397 16.2063 17.1666 16.6666 17.1666C17.1268 17.1666 17.4999 17.5397 17.4999 18Z" stroke="#838393" stroke-width="2" stroke-linecap="round" stroke-linejoin="round"/>
</g>
<defs>
<clipPath id="clip0_107_230">
<rect width="20" height="20" fill="white" transform="translate(0 0.5)"/>
</clipPath>
</defs>
</svg>
