<svg width="20" height="20" viewBox="0 0 20 20" fill="none" xmlns="http://www.w3.org/2000/svg">
<path fill-rule="evenodd" clip-rule="evenodd" d="M7.5 1.66669C5.19881 1.66669 3.33333 3.53217 3.33333 5.83335C3.33333 8.13454 5.19881 10 7.5 10C9.80119 10 11.6667 8.13454 11.6667 5.83335C11.6667 3.53217 9.80119 1.66669 7.5 1.66669ZM5 5.83335C5 4.45264 6.11929 3.33335 7.5 3.33335C8.88071 3.33335 10 4.45264 10 5.83335C10 7.21407 8.88071 8.33335 7.5 8.33335C6.11929 8.33335 5 7.21407 5 5.83335Z" fill="white"/>
<path d="M4.16667 11.6667C3.0616 11.6667 2.00179 12.1057 1.22039 12.8871C0.438987 13.6685 0 14.7283 0 15.8334V17.5C0 17.9603 0.373096 18.3334 0.833333 18.3334C1.29357 18.3334 1.66667 17.9603 1.66667 17.5V15.8334C1.66667 15.1703 1.93006 14.5344 2.3989 14.0656C2.86774 13.5967 3.50363 13.3334 4.16667 13.3334H10.8333C11.4964 13.3334 12.1323 13.5967 12.6011 14.0656C13.0699 14.5344 13.3333 15.1703 13.3333 15.8334V17.5C13.3333 17.9603 13.7064 18.3334 14.1667 18.3334C14.6269 18.3334 15 17.9603 15 17.5V15.8334C15 14.7283 14.561 13.6685 13.7796 12.8871C12.9982 12.1057 11.9384 11.6667 10.8333 11.6667H4.16667Z" fill="white"/>
<path d="M15.8598 12.4C15.9749 11.9544 16.4294 11.6864 16.875 11.8015C17.7689 12.0323 18.5608 12.5534 19.1264 13.2831C19.692 14.0127 19.9993 14.9095 20 15.8327V17.5C20 17.9603 19.6269 18.3334 19.1667 18.3334C18.7064 18.3334 18.3333 17.9603 18.3333 17.5V15.834C18.3329 15.2801 18.1485 14.7419 17.8092 14.3042C17.4698 13.8664 16.9947 13.5537 16.4583 13.4152C16.0127 13.3002 15.7447 12.8456 15.8598 12.4Z" fill="white"/>
<path d="M13.54 1.80107C13.0942 1.68691 12.6402 1.9558 12.526 2.40166C12.4119 2.84751 12.6808 3.30149 13.1266 3.41565C13.6644 3.55334 14.141 3.86609 14.4814 4.30459C14.8218 4.7431 15.0065 5.28242 15.0065 5.83752C15.0065 6.39263 14.8218 6.93195 14.4814 7.37045C14.141 7.80896 13.6644 8.12171 13.1266 8.2594C12.6808 8.37356 12.4119 8.82753 12.526 9.27339C12.6402 9.71924 13.0942 9.98814 13.54 9.87398C14.4363 9.6445 15.2307 9.12325 15.798 8.39241C16.3653 7.66157 16.6732 6.7627 16.6732 5.83752C16.6732 4.91235 16.3653 4.01348 15.798 3.28264C15.2307 2.5518 14.4363 2.03055 13.54 1.80107Z" fill="white"/>
</svg>
