<svg width="20" height="21" viewBox="0 0 20 21" fill="none" xmlns="http://www.w3.org/2000/svg">
<path fill-rule="evenodd" clip-rule="evenodd" d="M7.5 2.16669C5.19881 2.16669 3.33333 4.03217 3.33333 6.33335C3.33333 8.63454 5.19881 10.5 7.5 10.5C9.80119 10.5 11.6667 8.63454 11.6667 6.33335C11.6667 4.03217 9.80119 2.16669 7.5 2.16669ZM5 6.33335C5 4.95264 6.11929 3.83335 7.5 3.83335C8.88071 3.83335 10 4.95264 10 6.33335C10 7.71407 8.88071 8.83335 7.5 8.83335C6.11929 8.83335 5 7.71407 5 6.33335Z" fill="#838393"/>
<path d="M4.16667 12.1667C3.0616 12.1667 2.00179 12.6057 1.22039 13.3871C0.438987 14.1685 0 15.2283 0 16.3334V18C0 18.4603 0.373096 18.8334 0.833333 18.8334C1.29357 18.8334 1.66667 18.4603 1.66667 18V16.3334C1.66667 15.6703 1.93006 15.0344 2.3989 14.5656C2.86774 14.0967 3.50363 13.8334 4.16667 13.8334H10.8333C11.4964 13.8334 12.1323 14.0967 12.6011 14.5656C13.0699 15.0344 13.3333 15.6703 13.3333 16.3334V18C13.3333 18.4603 13.7064 18.8334 14.1667 18.8334C14.6269 18.8334 15 18.4603 15 18V16.3334C15 15.2283 14.561 14.1685 13.7796 13.3871C12.9982 12.6057 11.9384 12.1667 10.8333 12.1667H4.16667Z" fill="#838393"/>
<path d="M15.8598 12.9C15.9749 12.4544 16.4294 12.1864 16.875 12.3015C17.7689 12.5323 18.5608 13.0534 19.1264 13.7831C19.692 14.5127 19.9993 15.4095 20 16.3327V18C20 18.4603 19.6269 18.8334 19.1667 18.8334C18.7064 18.8334 18.3333 18.4603 18.3333 18V16.334C18.3329 15.7801 18.1485 15.2419 17.8092 14.8042C17.4698 14.3664 16.9947 14.0537 16.4583 13.9152C16.0127 13.8002 15.7447 13.3456 15.8598 12.9Z" fill="#838393"/>
<path d="M13.54 2.30107C13.0942 2.18691 12.6402 2.4558 12.526 2.90166C12.4119 3.34751 12.6808 3.80149 13.1266 3.91565C13.6644 4.05334 14.141 4.36609 14.4814 4.80459C14.8218 5.2431 15.0065 5.78242 15.0065 6.33752C15.0065 6.89263 14.8218 7.43195 14.4814 7.87045C14.141 8.30896 13.6644 8.62171 13.1266 8.7594C12.6808 8.87356 12.4119 9.32753 12.526 9.77339C12.6402 10.2192 13.0942 10.4881 13.54 10.374C14.4363 10.1445 15.2307 9.62325 15.798 8.89241C16.3653 8.16157 16.6732 7.2627 16.6732 6.33752C16.6732 5.41235 16.3653 4.51348 15.798 3.78264C15.2307 3.0518 14.4363 2.53055 13.54 2.30107Z" fill="#838393"/>
</svg>
