<svg width="16" height="16" viewBox="0 0 16 16" fill="none" xmlns="http://www.w3.org/2000/svg">
<path d="M6.66665 6.66663C7.03484 6.66663 7.33331 6.9651 7.33331 7.33329V11.3333C7.33331 11.7015 7.03484 12 6.66665 12C6.29846 12 5.99998 11.7015 5.99998 11.3333V7.33329C5.99998 6.9651 6.29846 6.66663 6.66665 6.66663Z" fill="#2D3648"/>
<path d="M9.99998 11.3333V7.33329C9.99998 6.9651 9.7015 6.66663 9.33331 6.66663C8.96512 6.66663 8.66665 6.9651 8.66665 7.33329V11.3333C8.66665 11.7015 8.96512 12 9.33331 12C9.7015 12 9.99998 11.7015 9.99998 11.3333Z" fill="#2D3648"/>
<path fill-rule="evenodd" clip-rule="evenodd" d="M4.66665 3.33329V2.66663C4.66665 2.13619 4.87736 1.62748 5.25243 1.25241C5.62751 0.87734 6.13621 0.666626 6.66665 0.666626H9.33331C9.86375 0.666626 10.3725 0.87734 10.7475 1.25241C11.1226 1.62748 11.3333 2.13619 11.3333 2.66663V3.33329H14C14.3682 3.33329 14.6666 3.63177 14.6666 3.99996C14.6666 4.36815 14.3682 4.66663 14 4.66663H13.3333V13.3333C13.3333 13.8637 13.1226 14.3724 12.7475 14.7475C12.3725 15.1226 11.8637 15.3333 11.3333 15.3333H4.66665C4.13621 15.3333 3.62751 15.1226 3.25243 14.7475C2.87736 14.3724 2.66665 13.8637 2.66665 13.3333V4.66663H1.99998C1.63179 4.66663 1.33331 4.36815 1.33331 3.99996C1.33331 3.63177 1.63179 3.33329 1.99998 3.33329H4.66665ZM6.19524 2.19522C6.32027 2.0702 6.48984 1.99996 6.66665 1.99996H9.33331C9.51012 1.99996 9.67969 2.0702 9.80472 2.19522C9.92974 2.32025 9.99998 2.48982 9.99998 2.66663V3.33329H5.99998V2.66663C5.99998 2.48982 6.07022 2.32025 6.19524 2.19522ZM3.99998 4.66663V13.3333C3.99998 13.5101 4.07022 13.6797 4.19524 13.8047C4.32027 13.9297 4.48984 14 4.66665 14H11.3333C11.5101 14 11.6797 13.9297 11.8047 13.8047C11.9297 13.6797 12 13.5101 12 13.3333V4.66663H3.99998Z" fill="#2D3648"/>
</svg>
