<svg width="21" height="21" viewBox="0 0 21 21" fill="none" xmlns="http://www.w3.org/2000/svg">
<path fill-rule="evenodd" clip-rule="evenodd" d="M4.66675 3.83334C4.44573 3.83334 4.23377 3.92114 4.07749 4.07742C3.92121 4.2337 3.83341 4.44566 3.83341 4.66667V16.3333C3.83341 16.5544 3.92121 16.7663 4.07749 16.9226C4.23377 17.0789 4.44573 17.1667 4.66675 17.1667H8.00008C8.46032 17.1667 8.83342 17.5398 8.83342 18C8.83342 18.4602 8.46032 18.8333 8.00008 18.8333H4.66675C4.00371 18.8333 3.36782 18.5699 2.89898 18.1011C2.43014 17.6323 2.16675 16.9964 2.16675 16.3333V4.66667C2.16675 4.00363 2.43014 3.36775 2.89898 2.8989C3.36782 2.43006 4.00371 2.16667 4.66675 2.16667H8.00008C8.46032 2.16667 8.83342 2.53977 8.83342 3.00001C8.83342 3.46024 8.46032 3.83334 8.00008 3.83334H4.66675ZM13.2442 5.74408C13.5696 5.41865 14.0972 5.41865 14.4227 5.74408L18.5893 9.91075C18.9148 10.2362 18.9148 10.7638 18.5893 11.0893L14.4227 15.2559C14.0972 15.5814 13.5696 15.5814 13.2442 15.2559C12.9187 14.9305 12.9187 14.4029 13.2442 14.0774L15.9882 11.3333H8.00008C7.53984 11.3333 7.16675 10.9602 7.16675 10.5C7.16675 10.0398 7.53984 9.66667 8.00008 9.66667H15.9882L13.2442 6.92259C12.9187 6.59716 12.9187 6.06952 13.2442 5.74408Z" fill="#9A9AA7"/>
</svg>
